<svg width="1883" height="874" viewBox="0 0 1883 874" fill="none" xmlns="http://www.w3.org/2000/svg">
<path d="M144.293 20.88C134.565 20.88 125.776 22.5867 117.925 26C110.074 29.2427 103.418 34.1067 97.957 40.592C92.4957 46.9067 88.3143 54.672 85.413 63.888C82.5117 72.9333 81.061 83.1733 81.061 94.608C81.061 109.627 83.365 122.683 87.973 133.776C92.7517 144.869 99.749 153.403 108.965 159.376C118.352 165.349 130.042 168.336 144.037 168.336C152.058 168.336 159.653 167.653 166.821 166.288C173.989 164.923 180.986 163.216 187.813 161.168V181.136C180.986 183.696 173.904 185.573 166.565 186.768C159.397 187.963 150.778 188.56 140.709 188.56C122.106 188.56 106.576 184.72 94.117 177.04C81.6583 169.36 72.2717 158.437 65.957 144.272C59.813 130.107 56.741 113.467 56.741 94.352C56.741 80.528 58.6183 67.8987 62.373 56.464C66.2983 45.0293 71.9303 35.1307 79.269 26.768C86.7783 18.4053 95.9943 12.0053 106.917 7.56799C117.84 2.95999 130.384 0.655991 144.549 0.655991C153.936 0.655991 162.981 1.59466 171.685 3.47198C180.389 5.34932 188.154 7.99466 194.981 11.408L185.765 30.864C180.133 28.304 173.818 26 166.821 23.952C159.994 21.904 152.485 20.88 144.293 20.88ZM343.931 117.136C343.931 128.571 342.395 138.725 339.323 147.6C336.422 156.304 332.155 163.728 326.523 169.872C321.062 176.016 314.32 180.709 306.299 183.952C298.448 187.024 289.659 188.56 279.931 188.56C270.886 188.56 262.523 187.024 254.843 183.952C247.163 180.709 240.507 176.016 234.875 169.872C229.243 163.728 224.806 156.304 221.563 147.6C218.491 138.725 216.955 128.571 216.955 117.136C216.955 101.947 219.515 89.1467 224.635 78.736C229.755 68.1547 237.094 60.1333 246.651 54.672C256.208 49.04 267.558 46.224 280.699 46.224C293.158 46.224 304.08 49.04 313.467 54.672C323.024 60.1333 330.448 68.1547 335.739 78.736C341.2 89.1467 343.931 101.947 343.931 117.136ZM240.251 117.136C240.251 127.888 241.616 137.275 244.347 145.296C247.248 153.147 251.686 159.205 257.659 163.472C263.632 167.739 271.227 169.872 280.443 169.872C289.659 169.872 297.254 167.739 303.227 163.472C309.2 159.205 313.552 153.147 316.283 145.296C319.184 137.275 320.635 127.888 320.635 117.136C320.635 106.213 319.184 96.912 316.283 89.232C313.382 81.552 308.944 75.664 302.971 71.568C297.168 67.3013 289.574 65.168 280.187 65.168C266.192 65.168 256.038 69.776 249.723 78.992C243.408 88.208 240.251 100.923 240.251 117.136ZM489.971 83.344C489.971 91.8773 487.411 98.5333 482.291 103.312C477.171 108.091 470.6 111.333 462.579 113.04V114.064C471.112 115.259 478.536 118.331 484.851 123.28C491.166 128.059 494.323 135.568 494.323 145.808C494.323 151.611 493.214 156.987 490.995 161.936C488.947 166.885 485.704 171.152 481.267 174.736C476.83 178.32 471.112 181.136 464.115 183.184C457.118 185.061 448.67 186 438.771 186H379.635V48.784H438.515C448.243 48.784 456.947 49.8933 464.627 52.112C472.478 54.16 478.622 57.744 483.059 62.864C487.667 67.8133 489.971 74.64 489.971 83.344ZM471.027 145.808C471.027 137.957 468.04 132.325 462.067 128.912C456.094 125.499 447.304 123.792 435.699 123.792H402.163V167.824H436.211C447.475 167.824 456.094 166.203 462.067 162.96C468.04 159.547 471.027 153.829 471.027 145.808ZM467.187 86.16C467.187 79.6747 464.798 74.9813 460.019 72.08C455.411 69.008 447.816 67.472 437.235 67.472H402.163V105.104H433.139C444.232 105.104 452.68 103.568 458.483 100.496C464.286 97.424 467.187 92.6453 467.187 86.16ZM582.175 188.56C570.058 188.56 559.22 186.085 549.663 181.136C540.276 176.187 532.852 168.507 527.391 158.096C522.1 147.685 519.455 134.373 519.455 118.16C519.455 101.264 522.271 87.5253 527.903 76.944C533.535 66.3627 541.13 58.5973 550.687 53.648C560.415 48.6987 571.423 46.224 583.711 46.224C590.708 46.224 597.45 46.992 603.935 48.528C610.42 49.8933 615.711 51.6 619.807 53.648L612.895 72.336C608.799 70.8 604.02 69.3493 598.559 67.984C593.098 66.6187 587.978 65.936 583.199 65.936C573.983 65.936 566.388 67.8987 560.415 71.824C554.442 75.7493 550.004 81.552 547.103 89.232C544.202 96.912 542.751 106.469 542.751 117.904C542.751 128.827 544.202 138.128 547.103 145.808C550.004 153.488 554.356 159.291 560.159 163.216C565.962 167.141 573.215 169.104 581.919 169.104C589.428 169.104 595.999 168.336 601.631 166.8C607.434 165.264 612.724 163.387 617.503 161.168V181.136C612.895 183.525 607.775 185.317 602.143 186.512C596.682 187.877 590.026 188.56 582.175 188.56ZM703.127 46.224C714.903 46.224 724.972 48.784 733.335 53.904C741.868 59.024 748.354 66.2773 752.791 75.664C757.399 84.88 759.703 95.7173 759.703 108.176V121.744H665.751C666.092 137.275 670.018 149.136 677.527 157.328C685.207 165.349 695.874 169.36 709.527 169.36C718.231 169.36 725.911 168.592 732.567 167.056C739.394 165.349 746.391 162.96 753.559 159.888V179.6C746.562 182.672 739.65 184.891 732.823 186.256C725.996 187.792 717.89 188.56 708.503 188.56C695.532 188.56 684.012 185.915 673.943 180.624C664.044 175.333 656.279 167.483 650.647 157.072C645.186 146.491 642.455 133.605 642.455 118.416C642.455 103.397 644.93 90.512 649.879 79.76C654.999 69.008 662.082 60.7307 671.127 54.928C680.343 49.1253 691.01 46.224 703.127 46.224ZM702.871 64.656C692.119 64.656 683.586 68.1547 677.271 75.152C671.127 81.9787 667.458 91.536 666.263 103.824H736.151C736.151 95.9733 734.956 89.1467 732.567 83.344C730.178 77.5413 726.508 73.0187 721.559 69.776C716.78 66.3627 710.551 64.656 702.871 64.656ZM941.835 48.784V186H921.611V98.448C921.611 94.864 921.696 91.1093 921.867 87.184C922.208 83.2587 922.55 79.4187 922.891 75.664H922.123L877.323 186H858.379L814.859 75.664H814.091C814.432 79.4187 814.603 83.2587 814.603 87.184C814.774 91.1093 814.859 95.12 814.859 99.216V186H794.635V48.784H824.587L867.851 159.12L911.883 48.784H941.835ZM1125.68 188.56C1113.56 188.56 1102.72 186.085 1093.16 181.136C1083.78 176.187 1076.35 168.507 1070.89 158.096C1065.6 147.685 1062.96 134.373 1062.96 118.16C1062.96 101.264 1065.77 87.5253 1071.4 76.944C1077.04 66.3627 1084.63 58.5973 1094.19 53.648C1103.92 48.6987 1114.92 46.224 1127.21 46.224C1134.21 46.224 1140.95 46.992 1147.44 48.528C1153.92 49.8933 1159.21 51.6 1163.31 53.648L1156.4 72.336C1152.3 70.8 1147.52 69.3493 1142.06 67.984C1136.6 66.6187 1131.48 65.936 1126.7 65.936C1117.48 65.936 1109.89 67.8987 1103.92 71.824C1097.94 75.7493 1093.5 81.552 1090.6 89.232C1087.7 96.912 1086.25 106.469 1086.25 117.904C1086.25 128.827 1087.7 138.128 1090.6 145.808C1093.5 153.488 1097.86 159.291 1103.66 163.216C1109.46 167.141 1116.72 169.104 1125.42 169.104C1132.93 169.104 1139.5 168.336 1145.13 166.8C1150.93 165.264 1156.22 163.387 1161 161.168V181.136C1156.4 183.525 1151.28 185.317 1145.64 186.512C1140.18 187.877 1133.53 188.56 1125.68 188.56ZM1274.79 48.784H1299.36L1240.74 114.832L1304.23 186H1278.12L1216.16 116.368V186H1193.64V48.784H1216.16V115.344L1274.79 48.784ZM1443.43 117.136C1443.43 128.571 1441.9 138.725 1438.82 147.6C1435.92 156.304 1431.66 163.728 1426.02 169.872C1420.56 176.016 1413.82 180.709 1405.8 183.952C1397.95 187.024 1389.16 188.56 1379.43 188.56C1370.39 188.56 1362.02 187.024 1354.34 183.952C1346.66 180.709 1340.01 176.016 1334.38 169.872C1328.74 163.728 1324.31 156.304 1321.06 147.6C1317.99 138.725 1316.46 128.571 1316.46 117.136C1316.46 101.947 1319.02 89.1467 1324.14 78.736C1329.26 68.1547 1336.59 60.1333 1346.15 54.672C1355.71 49.04 1367.06 46.224 1380.2 46.224C1392.66 46.224 1403.58 49.04 1412.97 54.672C1422.52 60.1333 1429.95 68.1547 1435.24 78.736C1440.7 89.1467 1443.43 101.947 1443.43 117.136ZM1339.75 117.136C1339.75 127.888 1341.12 137.275 1343.85 145.296C1346.75 153.147 1351.19 159.205 1357.16 163.472C1363.13 167.739 1370.73 169.872 1379.94 169.872C1389.16 169.872 1396.75 167.739 1402.73 163.472C1408.7 159.205 1413.05 153.147 1415.78 145.296C1418.68 137.275 1420.14 127.888 1420.14 117.136C1420.14 106.213 1418.68 96.912 1415.78 89.232C1412.88 81.552 1408.44 75.664 1402.47 71.568C1396.67 67.3013 1389.07 65.168 1379.69 65.168C1365.69 65.168 1355.54 69.776 1349.22 78.992C1342.91 88.208 1339.75 100.923 1339.75 117.136ZM1544.42 46.224C1561.31 46.224 1574.88 52.112 1585.12 63.888C1595.53 75.664 1600.74 93.4133 1600.74 117.136C1600.74 132.667 1598.35 145.808 1593.57 156.56C1588.96 167.141 1582.39 175.163 1573.86 180.624C1565.49 185.915 1555.59 188.56 1544.16 188.56C1537.16 188.56 1530.93 187.621 1525.47 185.744C1520.01 183.867 1515.32 181.477 1511.39 178.576C1507.64 175.504 1504.39 172.176 1501.66 168.592H1500.13C1500.47 171.493 1500.81 175.163 1501.15 179.6C1501.49 184.037 1501.66 187.877 1501.66 191.12V247.44H1479.14V48.784H1497.57L1500.64 67.472H1501.66C1504.39 63.5467 1507.64 59.9627 1511.39 56.72C1515.32 53.4773 1519.92 50.9173 1525.22 49.04C1530.68 47.1627 1537.08 46.224 1544.42 46.224ZM1540.32 65.168C1531.1 65.168 1523.68 66.96 1518.05 70.544C1512.42 73.9573 1508.32 79.1627 1505.76 86.16C1503.2 93.1573 1501.83 102.032 1501.66 112.784V117.136C1501.66 128.4 1502.86 137.957 1505.25 145.808C1507.64 153.659 1511.65 159.632 1517.28 163.728C1523.08 167.824 1530.93 169.872 1540.83 169.872C1549.19 169.872 1556.02 167.568 1561.31 162.96C1566.77 158.352 1570.78 152.123 1573.34 144.272C1576.07 136.251 1577.44 127.12 1577.44 116.88C1577.44 101.179 1574.37 88.6347 1568.22 79.248C1562.25 69.8613 1552.95 65.168 1540.32 65.168ZM1755.93 117.136C1755.93 128.571 1754.4 138.725 1751.32 147.6C1748.42 156.304 1744.16 163.728 1738.52 169.872C1733.06 176.016 1726.32 180.709 1718.3 183.952C1710.45 187.024 1701.66 188.56 1691.93 188.56C1682.89 188.56 1674.52 187.024 1666.84 183.952C1659.16 180.709 1652.51 176.016 1646.88 169.872C1641.24 163.728 1636.81 156.304 1633.56 147.6C1630.49 138.725 1628.96 128.571 1628.96 117.136C1628.96 101.947 1631.52 89.1467 1636.64 78.736C1641.76 68.1547 1649.09 60.1333 1658.65 54.672C1668.21 49.04 1679.56 46.224 1692.7 46.224C1705.16 46.224 1716.08 49.04 1725.47 54.672C1735.02 60.1333 1742.45 68.1547 1747.74 78.736C1753.2 89.1467 1755.93 101.947 1755.93 117.136ZM1652.25 117.136C1652.25 127.888 1653.62 137.275 1656.35 145.296C1659.25 153.147 1663.69 159.205 1669.66 163.472C1675.63 167.739 1683.23 169.872 1692.44 169.872C1701.66 169.872 1709.25 167.739 1715.23 163.472C1721.2 159.205 1725.55 153.147 1728.28 145.296C1731.18 137.275 1732.64 127.888 1732.64 117.136C1732.64 106.213 1731.18 96.912 1728.28 89.232C1725.38 81.552 1720.94 75.664 1714.97 71.568C1709.17 67.3013 1701.57 65.168 1692.19 65.168C1678.19 65.168 1668.04 69.776 1661.72 78.992C1655.41 88.208 1652.25 100.923 1652.25 117.136ZM49.731 366.224C60.1417 366.224 69.187 367.675 76.867 370.576C84.547 373.307 90.5203 377.403 94.787 382.864C99.0537 388.155 101.187 394.64 101.187 402.32C101.187 410.683 98.883 417.339 94.275 422.288C89.667 427.067 83.3523 430.565 75.331 432.784V433.808C80.7923 435.344 85.827 437.477 90.435 440.208C95.043 442.939 98.7123 446.523 101.443 450.96C104.344 455.397 105.795 461.115 105.795 468.112C105.795 475.621 103.662 482.448 99.395 488.592C95.299 494.736 88.899 499.6 80.195 503.184C71.6617 506.768 60.6537 508.56 47.171 508.56C40.6857 508.56 34.4563 508.219 28.483 507.536C22.6803 506.853 17.3897 505.829 12.611 504.464C8.003 503.099 3.907 501.477 0.323 499.6V479.376C6.12567 482.107 12.9523 484.581 20.803 486.8C28.8243 489.019 37.5283 490.128 46.915 490.128C53.7417 490.128 59.8857 489.36 65.347 487.824C70.979 486.288 75.4163 483.899 78.659 480.656C81.9017 477.243 83.523 472.635 83.523 466.832C83.523 461.541 82.0723 457.275 79.171 454.032C76.2697 450.619 71.9177 448.059 66.115 446.352C60.483 444.645 53.2297 443.792 44.355 443.792H25.923V425.36H40.771C52.547 425.36 61.9337 423.824 68.931 420.752C76.099 417.509 79.683 412.048 79.683 404.368C79.683 397.883 76.9523 393.019 71.491 389.776C66.2003 386.533 58.5203 384.912 48.451 384.912C40.9417 384.912 34.2857 385.68 28.483 387.216C22.851 388.581 16.6217 390.715 9.795 393.616L1.859 375.696C9.19767 372.453 16.8777 370.064 24.899 368.528C32.9203 366.992 41.1977 366.224 49.731 366.224ZM241.023 368.784V487.056H260.991V553.616H239.231V506H143.743V553.616H122.239V487.056H133.247C141.098 476.133 147.583 464.272 152.703 451.472C157.994 438.501 161.919 425.019 164.479 411.024C167.21 396.859 168.66 382.779 168.831 368.784H241.023ZM188.799 386.448C188.116 398.053 186.324 410.085 183.423 422.544C180.522 434.832 176.767 446.608 172.159 457.872C167.722 469.136 162.516 478.864 156.543 487.056H219.263V386.448H188.799ZM340.877 366.224C352.653 366.224 362.722 368.784 371.085 373.904C379.618 379.024 386.104 386.277 390.541 395.664C395.149 404.88 397.453 415.717 397.453 428.176V441.744H303.501C303.842 457.275 307.768 469.136 315.277 477.328C322.957 485.349 333.624 489.36 347.277 489.36C355.981 489.36 363.661 488.592 370.317 487.056C377.144 485.349 384.141 482.96 391.309 479.888V499.6C384.312 502.672 377.4 504.891 370.573 506.256C363.746 507.792 355.64 508.56 346.253 508.56C333.282 508.56 321.762 505.915 311.693 500.624C301.794 495.333 294.029 487.483 288.397 477.072C282.936 466.491 280.205 453.605 280.205 438.416C280.205 423.397 282.68 410.512 287.629 399.76C292.749 389.008 299.832 380.731 308.877 374.928C318.093 369.125 328.76 366.224 340.877 366.224ZM340.621 384.656C329.869 384.656 321.336 388.155 315.021 395.152C308.877 401.979 305.208 411.536 304.013 423.824H373.901C373.901 415.973 372.706 409.147 370.317 403.344C367.928 397.541 364.258 393.019 359.309 389.776C354.53 386.363 348.301 384.656 340.621 384.656ZM487.425 508.56C475.308 508.56 464.47 506.085 454.913 501.136C445.526 496.187 438.102 488.507 432.641 478.096C427.35 467.685 424.705 454.373 424.705 438.16C424.705 421.264 427.521 407.525 433.153 396.944C438.785 386.363 446.38 378.597 455.937 373.648C465.665 368.699 476.673 366.224 488.961 366.224C495.958 366.224 502.7 366.992 509.185 368.528C515.67 369.893 520.961 371.6 525.057 373.648L518.145 392.336C514.049 390.8 509.27 389.349 503.809 387.984C498.348 386.619 493.228 385.936 488.449 385.936C479.233 385.936 471.638 387.899 465.665 391.824C459.692 395.749 455.254 401.552 452.353 409.232C449.452 416.912 448.001 426.469 448.001 437.904C448.001 448.827 449.452 458.128 452.353 465.808C455.254 473.488 459.606 479.291 465.409 483.216C471.212 487.141 478.465 489.104 487.169 489.104C494.678 489.104 501.249 488.336 506.881 486.8C512.684 485.264 517.974 483.387 522.753 481.168V501.136C518.145 503.525 513.025 505.317 507.393 506.512C501.932 507.877 495.276 508.56 487.425 508.56ZM618.617 425.104C630.564 425.104 640.462 426.555 648.313 429.456C656.164 432.357 662.052 436.709 665.977 442.512C670.073 448.144 672.121 455.312 672.121 464.016C672.121 472.549 670.158 479.973 666.233 486.288C662.478 492.603 656.59 497.467 648.569 500.88C640.548 504.293 630.222 506 617.593 506H555.385V368.784H577.913V425.104H618.617ZM649.593 465.296C649.593 456.933 646.606 451.301 640.633 448.4C634.83 445.328 626.638 443.792 616.057 443.792H577.913V487.824H616.569C626.126 487.824 633.977 486.117 640.121 482.704C646.436 479.291 649.593 473.488 649.593 465.296ZM908.353 368.784V506H885.825V387.984H814.913V506H792.385V368.784H908.353ZM1071.43 437.136C1071.43 448.571 1069.9 458.725 1066.82 467.6C1063.92 476.304 1059.66 483.728 1054.02 489.872C1048.56 496.016 1041.82 500.709 1033.8 503.952C1025.95 507.024 1017.16 508.56 1007.43 508.56C998.386 508.56 990.023 507.024 982.343 503.952C974.663 500.709 968.007 496.016 962.375 489.872C956.743 483.728 952.306 476.304 949.063 467.6C945.991 458.725 944.455 448.571 944.455 437.136C944.455 421.947 947.015 409.147 952.135 398.736C957.255 388.155 964.594 380.133 974.151 374.672C983.708 369.04 995.058 366.224 1008.2 366.224C1020.66 366.224 1031.58 369.04 1040.97 374.672C1050.52 380.133 1057.95 388.155 1063.24 398.736C1068.7 409.147 1071.43 421.947 1071.43 437.136ZM967.751 437.136C967.751 447.888 969.116 457.275 971.847 465.296C974.748 473.147 979.186 479.205 985.159 483.472C991.132 487.739 998.727 489.872 1007.94 489.872C1017.16 489.872 1024.75 487.739 1030.73 483.472C1036.7 479.205 1041.05 473.147 1043.78 465.296C1046.68 457.275 1048.14 447.888 1048.14 437.136C1048.14 426.213 1046.68 416.912 1043.78 409.232C1040.88 401.552 1036.44 395.664 1030.47 391.568C1024.67 387.301 1017.07 385.168 1007.69 385.168C993.692 385.168 983.538 389.776 977.223 398.992C970.908 408.208 967.751 420.923 967.751 437.136ZM1115.58 506H1089.47L1128.64 448.4C1123.35 447.035 1118.23 444.901 1113.28 442C1108.33 438.928 1104.32 434.747 1101.25 429.456C1098.18 423.995 1096.64 417.253 1096.64 409.232C1096.64 396.091 1101.08 386.107 1109.95 379.28C1118.83 372.283 1130.6 368.784 1145.28 368.784H1206.72V506H1184.19V451.472H1150.91L1115.58 506ZM1118.4 409.488C1118.4 417.339 1121.3 423.227 1127.1 427.152C1133.08 430.907 1141.35 432.784 1151.94 432.784H1184.19V387.472H1147.58C1137.17 387.472 1129.66 389.52 1125.06 393.616C1120.62 397.712 1118.4 403.003 1118.4 409.488ZM1360.47 403.344C1360.47 411.877 1357.91 418.533 1352.79 423.312C1347.67 428.091 1341.1 431.333 1333.08 433.04V434.064C1341.61 435.259 1349.04 438.331 1355.35 443.28C1361.67 448.059 1364.82 455.568 1364.82 465.808C1364.82 471.611 1363.71 476.987 1361.5 481.936C1359.45 486.885 1356.2 491.152 1351.77 494.736C1347.33 498.32 1341.61 501.136 1334.62 503.184C1327.62 505.061 1319.17 506 1309.27 506H1250.14V368.784H1309.02C1318.74 368.784 1327.45 369.893 1335.13 372.112C1342.98 374.16 1349.12 377.744 1353.56 382.864C1358.17 387.813 1360.47 394.64 1360.47 403.344ZM1341.53 465.808C1341.53 457.957 1338.54 452.325 1332.57 448.912C1326.59 445.499 1317.8 443.792 1306.2 443.792H1272.66V487.824H1306.71C1317.98 487.824 1326.59 486.203 1332.57 482.96C1338.54 479.547 1341.53 473.829 1341.53 465.808ZM1337.69 406.16C1337.69 399.675 1335.3 394.981 1330.52 392.08C1325.91 389.008 1318.32 387.472 1307.74 387.472H1272.66V425.104H1303.64C1314.73 425.104 1323.18 423.568 1328.98 420.496C1334.79 417.424 1337.69 412.645 1337.69 406.16ZM1406.08 506H1379.97L1419.14 448.4C1413.85 447.035 1408.73 444.901 1403.78 442C1398.83 438.928 1394.82 434.747 1391.75 429.456C1388.68 423.995 1387.14 417.253 1387.14 409.232C1387.14 396.091 1391.58 386.107 1400.45 379.28C1409.33 372.283 1421.1 368.784 1435.78 368.784H1497.22V506H1474.69V451.472H1441.41L1406.08 506ZM1408.9 409.488C1408.9 417.339 1411.8 423.227 1417.6 427.152C1423.58 430.907 1431.85 432.784 1442.44 432.784H1474.69V387.472H1438.08C1427.67 387.472 1420.16 389.52 1415.56 393.616C1411.12 397.712 1408.9 403.003 1408.9 409.488ZM1635.36 387.728H1590.56V506H1568.28V387.728H1524V368.784H1635.36V387.728ZM1714.93 508.56C1702.81 508.56 1691.97 506.085 1682.41 501.136C1673.03 496.187 1665.6 488.507 1660.14 478.096C1654.85 467.685 1652.21 454.373 1652.21 438.16C1652.21 421.264 1655.02 407.525 1660.65 396.944C1666.29 386.363 1673.88 378.597 1683.44 373.648C1693.17 368.699 1704.17 366.224 1716.46 366.224C1723.46 366.224 1730.2 366.992 1736.69 368.528C1743.17 369.893 1748.46 371.6 1752.56 373.648L1745.65 392.336C1741.55 390.8 1736.77 389.349 1731.31 387.984C1725.85 386.619 1720.73 385.936 1715.95 385.936C1706.73 385.936 1699.14 387.899 1693.17 391.824C1687.19 395.749 1682.75 401.552 1679.85 409.232C1676.95 416.912 1675.5 426.469 1675.5 437.904C1675.5 448.827 1676.95 458.128 1679.85 465.808C1682.75 473.488 1687.11 479.291 1692.91 483.216C1698.71 487.141 1705.97 489.104 1714.67 489.104C1722.18 489.104 1728.75 488.336 1734.38 486.8C1740.18 485.264 1745.47 483.387 1750.25 481.168V501.136C1745.65 503.525 1740.53 505.317 1734.89 506.512C1729.43 507.877 1722.78 508.56 1714.93 508.56ZM1791.33 506H1765.22L1804.39 448.4C1799.1 447.035 1793.98 444.901 1789.03 442C1784.08 438.928 1780.07 434.747 1777 429.456C1773.93 423.995 1772.39 417.253 1772.39 409.232C1772.39 396.091 1776.83 386.107 1785.7 379.28C1794.58 372.283 1806.35 368.784 1821.03 368.784H1882.47V506H1859.94V451.472H1826.66L1791.33 506ZM1794.15 409.488C1794.15 417.339 1797.05 423.227 1802.85 427.152C1808.83 430.907 1817.1 432.784 1827.69 432.784H1859.94V387.472H1823.33C1812.92 387.472 1805.41 389.52 1800.81 393.616C1796.37 397.712 1794.15 403.003 1794.15 409.488ZM436.356 686.224C446.767 686.224 455.812 687.675 463.492 690.576C471.172 693.307 477.145 697.403 481.412 702.864C485.679 708.155 487.812 714.64 487.812 722.32C487.812 730.683 485.508 737.339 480.9 742.288C476.292 747.067 469.977 750.565 461.956 752.784V753.808C467.417 755.344 472.452 757.477 477.06 760.208C481.668 762.939 485.337 766.523 488.068 770.96C490.969 775.397 492.42 781.115 492.42 788.112C492.42 795.621 490.287 802.448 486.02 808.592C481.924 814.736 475.524 819.6 466.82 823.184C458.287 826.768 447.279 828.56 433.796 828.56C427.311 828.56 421.081 828.219 415.108 827.536C409.305 826.853 404.015 825.829 399.236 824.464C394.628 823.099 390.532 821.477 386.948 819.6V799.376C392.751 802.107 399.577 804.581 407.428 806.8C415.449 809.019 424.153 810.128 433.54 810.128C440.367 810.128 446.511 809.36 451.972 807.824C457.604 806.288 462.041 803.899 465.284 800.656C468.527 797.243 470.148 792.635 470.148 786.832C470.148 781.541 468.697 777.275 465.796 774.032C462.895 770.619 458.543 768.059 452.74 766.352C447.108 764.645 439.855 763.792 430.98 763.792H412.548V745.36H427.396C439.172 745.36 448.559 743.824 455.556 740.752C462.724 737.509 466.308 732.048 466.308 724.368C466.308 717.883 463.577 713.019 458.116 709.776C452.825 706.533 445.145 704.912 435.076 704.912C427.567 704.912 420.911 705.68 415.108 707.216C409.476 708.581 403.247 710.715 396.42 713.616L388.484 695.696C395.823 692.453 403.503 690.064 411.524 688.528C419.545 686.992 427.823 686.224 436.356 686.224ZM577.728 686.48C594.453 686.48 606.827 690.149 614.848 697.488C622.869 704.827 626.88 716.517 626.88 732.56V826H610.496L606.144 806.544H605.12C601.195 811.493 597.099 815.675 592.832 819.088C588.736 822.331 583.957 824.72 578.496 826.256C573.205 827.792 566.72 828.56 559.04 828.56C550.848 828.56 543.424 827.109 536.768 824.208C530.283 821.307 525.163 816.869 521.408 810.896C517.653 804.752 515.776 797.072 515.776 787.856C515.776 774.203 521.152 763.707 531.904 756.368C542.656 748.859 559.211 744.763 581.568 744.08L604.864 743.312V735.12C604.864 723.685 602.389 715.749 597.44 711.312C592.491 706.875 585.493 704.656 576.448 704.656C569.28 704.656 562.453 705.765 555.968 707.984C549.483 710.032 543.424 712.421 537.792 715.152L530.88 698.256C536.853 695.013 543.936 692.283 552.128 690.064C560.32 687.675 568.853 686.48 577.728 686.48ZM584.384 759.696C567.317 760.379 555.456 763.109 548.8 767.888C542.315 772.667 539.072 779.408 539.072 788.112C539.072 795.792 541.376 801.424 545.984 805.008C550.763 808.592 556.821 810.384 564.16 810.384C575.765 810.384 585.408 807.227 593.088 800.912C600.768 794.427 604.608 784.528 604.608 771.216V758.928L584.384 759.696ZM771.148 688.784V807.056H791.116V873.616H769.356V826H673.868V873.616H652.364V807.056H663.372C671.223 796.133 677.708 784.272 682.828 771.472C688.119 758.501 692.044 745.019 694.604 731.024C697.335 716.859 698.785 702.779 698.956 688.784H771.148ZM718.924 706.448C718.241 718.053 716.449 730.085 713.548 742.544C710.647 754.832 706.892 766.608 702.284 777.872C697.847 789.136 692.641 798.864 686.668 807.056H749.388V706.448H718.924ZM869.978 686.48C886.703 686.48 899.077 690.149 907.098 697.488C915.119 704.827 919.13 716.517 919.13 732.56V826H902.746L898.394 806.544H897.37C893.445 811.493 889.349 815.675 885.082 819.088C880.986 822.331 876.207 824.72 870.746 826.256C865.455 827.792 858.97 828.56 851.29 828.56C843.098 828.56 835.674 827.109 829.018 824.208C822.533 821.307 817.413 816.869 813.658 810.896C809.903 804.752 808.026 797.072 808.026 787.856C808.026 774.203 813.402 763.707 824.154 756.368C834.906 748.859 851.461 744.763 873.818 744.08L897.114 743.312V735.12C897.114 723.685 894.639 715.749 889.69 711.312C884.741 706.875 877.743 704.656 868.698 704.656C861.53 704.656 854.703 705.765 848.218 707.984C841.733 710.032 835.674 712.421 830.042 715.152L823.13 698.256C829.103 695.013 836.186 692.283 844.378 690.064C852.57 687.675 861.103 686.48 869.978 686.48ZM876.634 759.696C859.567 760.379 847.706 763.109 841.05 767.888C834.565 772.667 831.322 779.408 831.322 788.112C831.322 795.792 833.626 801.424 838.234 805.008C843.013 808.592 849.071 810.384 856.41 810.384C868.015 810.384 877.658 807.227 885.338 800.912C893.018 794.427 896.858 784.528 896.858 771.216V758.928L876.634 759.696ZM984.038 688.784V745.872H1058.53V688.784H1081.06V826H1058.53V764.816H984.038V826H961.51V688.784H984.038ZM1145.76 772.496C1145.76 774.032 1145.67 776.251 1145.5 779.152C1145.5 781.883 1145.42 784.869 1145.25 788.112C1145.08 791.184 1144.9 794.171 1144.73 797.072C1144.56 799.803 1144.39 802.021 1144.22 803.728L1217.69 688.784H1245.34V826H1224.35V745.104C1224.35 742.373 1224.35 738.789 1224.35 734.352C1224.52 729.915 1224.69 725.563 1224.86 721.296C1225.03 716.859 1225.2 713.531 1225.37 711.312L1152.41 826H1124.51V688.784H1145.76V772.496ZM1297.46 826H1271.35L1310.51 768.4C1305.22 767.035 1300.1 764.901 1295.15 762C1290.2 758.928 1286.19 754.747 1283.12 749.456C1280.05 743.995 1278.51 737.253 1278.51 729.232C1278.51 716.091 1282.95 706.107 1291.83 699.28C1300.7 692.283 1312.48 688.784 1327.15 688.784H1388.59V826H1366.07V771.472H1332.79L1297.46 826ZM1300.27 729.488C1300.27 737.339 1303.18 743.227 1308.98 747.152C1314.95 750.907 1323.23 752.784 1333.81 752.784H1366.07V707.472H1329.46C1319.05 707.472 1311.54 709.52 1306.93 713.616C1302.49 717.712 1300.27 723.003 1300.27 729.488ZM1444 630.625H1483.62V754.875H1444V630.625ZM1434.12 804.375C1434.12 801.042 1434.79 797.917 1436.12 795C1437.54 792 1439.54 789.417 1442.12 787.25C1444.71 785 1447.83 783.25 1451.5 782C1455.17 780.75 1459.29 780.125 1463.88 780.125C1468.46 780.125 1472.58 780.75 1476.25 782C1479.92 783.25 1483 785 1485.5 787.25C1488.08 789.417 1490.04 792 1491.38 795C1492.79 797.917 1493.5 801.042 1493.5 804.375C1493.5 807.708 1492.79 810.875 1491.38 813.875C1490.04 816.792 1488.08 819.333 1485.5 821.5C1483 823.667 1479.92 825.375 1476.25 826.625C1472.58 827.958 1468.46 828.625 1463.88 828.625C1459.29 828.625 1455.17 827.958 1451.5 826.625C1447.83 825.375 1444.71 823.667 1442.12 821.5C1439.54 819.333 1437.54 816.792 1436.12 813.875C1434.79 810.875 1434.12 807.708 1434.12 804.375Z" fill="white"/>
</svg>
